<?xml version="1.0" encoding="UTF-8"?><svg id="_图层_2" xmlns="http://www.w3.org/2000/svg" viewBox="0 0 39.57 17.97"><g id="_ユーザー登録完成"><path d="m0,13.55c0-.28.08-.4.4-.52l10.61-3.99v-.08L.4,4.95c-.32-.12-.4-.24-.4-.52V.27C0,.03.16-.05.4.03l17.15,6.78c.24.12.4.28.4.56v3.23c0,.28-.16.44-.4.57L.4,17.94c-.24.08-.4,0-.4-.24v-4.16Z"/><path d="m21.62,13.55c0-.28.08-.4.4-.52l10.61-3.99v-.08l-10.61-3.99c-.32-.12-.4-.24-.4-.52V.27c0-.24.16-.32.4-.24l17.15,6.78c.24.12.4.28.4.56v3.23c0,.28-.16.44-.4.57l-17.15,6.78c-.24.08-.4,0-.4-.24v-4.16Z"/></g></svg>