<?xml version="1.0" encoding="UTF-8"?><svg id="_图层_2" xmlns="http://www.w3.org/2000/svg" viewBox="0 0 178.31 241.05"><defs><style>.cls-1{fill:none;stroke:#fbeedd;stroke-linejoin:bevel;stroke-width:8.5px;}.cls-2{fill:#fbeedd;}.cls-3{fill:#007c2f;stroke:#000;stroke-miterlimit:10;stroke-width:5.67px;}</style></defs><g id="_管理者ログイン画面"><rect class="cls-3" x="2.83" y="2.83" width="172.64" height="235.38"/><path class="cls-2" d="m23.83,51.43c-2.93,0-4.53.07-6.34.28v-7.45c1.74.28,3.2.35,6.48.35h1.67c-.98-3.9-1.67-5.71-3.06-8.22l6.13-1.53h-3.27c-3.06,0-4.67.07-6.55.28v-7.45c1.74.28,3.34.35,6.69.35h5.29v-1.04c0-2.37-.07-3.34-.35-5.08h8.43c-.28,1.67-.35,2.58-.35,5.08v1.04h4.74c3.27,0,4.67-.07,6.48-.35v7.45c-1.88-.21-3.55-.28-6.55-.28h-2.86l5.92,1.67q-.42.91-1.04,2.44-.42.7-1.18,2.58c-.49,1.18-.77,1.67-1.53,3.06h1.39c3.13,0,4.6-.07,6.41-.35v7.45c-1.95-.21-3.41-.28-6.41-.28h-5.64v4.94h5.36c2.99,0,4.53-.07,6.34-.35v7.31c-1.81-.21-3.41-.28-6.34-.28h-2.58c2.09,2.44,3.83,3.9,7.17,6.13-1.53,2.58-2.3,4.04-3.34,6.62-3.48-3.13-4.6-4.32-6.82-7.52q.07.91.14,2.72c0,.21.07,2.37.07,2.72v6.96c0,2.44.14,4.11.42,5.78h-8.01c.21-1.6.35-3.27.35-5.5v-6.96c0-1.32.07-3.13.21-4.74-2.86,5.36-6.06,8.98-11.49,12.88-.97-2.86-1.95-4.81-3.55-7.1,5.29-3.27,9.19-7.1,12.19-11.98h-4.53c-3,0-4.46.07-6.34.35v-7.38c1.81.28,3.2.35,6.48.35h7.03v-4.94h-7.24Zm5.36-16.58c1.53,3,2.09,4.46,2.99,8.08l-6.2,1.67h9.54c1.95-3.62,2.86-5.85,3.9-9.75h-10.24Zm46.52,8.43c3.06,0,4.81-.14,6.34-.42v7.73c-1.74-.21-2.86-.28-5.57-.28h-1.74v28.07c0,4.18.07,6.13.42,8.22h-8.15c.35-2.16.42-4.18.42-8.22v-28.07h-7.45c-.07,8.84-.91,16.16-2.58,22.49-1.39,5.43-3.55,10.31-6.2,14-2.79-2.3-3.97-3.06-6.89-4.6,6.62-8.08,8.36-17.2,8.36-43.6,0-5.85-.07-8.08-.42-10.86,7.87-.21,19.92-3.27,23.47-5.92l5.71,6.75c-.77.21-1.04.35-2.3.77-5.57,2.09-9.96,3.13-19.08,4.74v9.19h15.67Z"/><path class="cls-2" d="m119.51,55.96c3.2,5.64,5.92,8.84,10.72,12.81-.42.56-.7.98-.91,1.25q-1.46,1.95-3.27,5.36c-4.11-4.11-5.99-6.55-8.36-11-.91,3.55-1.88,6.2-3.55,9.47-2.3,4.39-4.04,6.75-7.8,10.24-2.02-2.92-2.92-3.9-5.5-6.06,4.25-3.62,6.34-6.27,8.22-10.66,1.39-3.27,2.3-6.62,2.92-11.42h-3.13c-2.44,0-4.67.14-6.55.42v-7.87c1.88.28,3.76.42,6.2.42h3.97c.14-3.06.21-5.15.28-9.05h-3.55c-2.02,0-3.76.14-5.85.35v-7.38c1.95.28,3.69.42,6.2.42h3.27c0-6.83,0-7.94-.42-10.52h8.08q-.35,2.3-.42,10.52h2.44c2.44,0,4.11-.07,6.06-.35v7.31c-1.88-.28-3.34-.35-5.43-.35h-3.13c-.07,3.97-.14,5.43-.35,9.05h3.13c2.37,0,4.18-.07,6.06-.35v7.73c-1.88-.28-3.34-.35-5.43-.35h-3.9Zm23.82,8.91c-.7,6.34-1.67,9.19-4.11,12.67-2.72,3.69-5.71,5.99-12.33,9.26-2.23-3.13-3.2-4.18-5.43-6.06,9.89-3.13,13.93-7.38,14.9-15.88-1.95,0-3.83.07-5.5.21.14-1.74.21-3.9.21-6.89v-26.88c0-2.92-.07-5.29-.28-6.89,1.6.21,3.55.28,6.69.28h17.55c3.76,0,4.94-.07,6.75-.28-.21,1.95-.28,3.9-.28,7.03v27.02c0,2.86.07,4.53.28,6.69-.84-.14-1.04-.14-2.02-.14h-1.39c-1.67-.07-2.79-.14-2.92-.14h-1.6v12.05c0,1.25.56,1.53,2.79,1.53,2.92,0,3.13-.56,3.48-9.68,2.23,1.53,3.83,2.37,6.48,3.13-.7,12.19-1.81,13.51-11,13.51-6.41,0-8.71-1.32-8.71-5.01v-15.53h-3.55Zm-5.15-28.76h16.23v-4.67h-16.23v4.67Zm0,10.93h16.23v-4.67h-16.23v4.67Zm0,11.14h16.23v-4.88h-16.23v4.88Z"/><path class="cls-2" d="m78.95,116.11c-.56.56-.63.63-1.25,1.46-1.67,2.02-4.04,4.53-6.13,6.48,3.41,1.95,5.85,3.06,10.58,4.94-1.74,2.37-2.51,3.83-3.62,6.96-7.31-3.27-11.07-5.5-16.85-10.1v4.11c-1.39-.21-2.3-.28-4.67-.28h-15.39c-1.81,0-3.13.07-4.39.28v-4.53c-5.85,4.74-9.68,7.1-17.34,10.79-1.18-3-2.23-4.81-3.76-6.62,5.01-1.95,8.36-3.69,13.09-6.89-3.62-3.76-5.57-5.43-9.33-8.15l5.15-4.6c3.83,2.92,6.83,5.5,9.75,8.5,3.27-2.86,4.39-4.04,6.62-7.03h-9.19c-1.39,0-2.65.07-4.25.28v-7.03c1.74.28,2.86.35,5.78.35h13.09c3.27,0,4.53-.07,5.99-.28.77,2.86,1.74,4.53,4.67,7.87,2.58-2.65,4.6-5.29,5.85-7.52l5.78,3.83c-1.81,2.44-4.81,5.71-7.17,8.01,1.74,1.53,2.58,2.23,4.32,3.48,3-2.79,5.36-5.64,6.89-8.22l5.78,3.9Zm-42.48,43.04c-.63-1.81-1.81-4.11-2.85-5.64l6.13-2.23h-7.45c-2.3,0-3.76.07-5.01.21.21-1.88.28-3.06.28-5.08v-8.77c0-1.81-.07-3.13-.28-4.74,1.81.21,3.2.28,5.5.28h32.87c2.44,0,3.76-.07,5.43-.28-.21,1.53-.28,2.65-.28,4.67v8.84c0,2.37.07,3.48.28,5.08-1.32-.14-2.72-.21-5.01-.21h-6.75l5.78,2.09c-1.11,2.09-2.72,5.08-3.2,5.78h11.91c3.27,0,4.8-.07,6.82-.35v7.52c-2.09-.28-3.9-.35-7.24-.35H25.19c-3.34,0-5.08.07-7.24.35v-7.52c2.02.28,3.48.35,6.76.35h11.77Zm-1.74-14.14h28.69v-5.64h-28.69v5.64Zm22.35-21.52h1.74c-3.76-3.34-6.13-6.13-9.61-10.93-3.06,4.46-5.71,7.45-9.61,10.93h17.48Zm-2.72,35.66c1.53-2.72,2.92-5.71,3.55-7.87h-17.41c1.46,2.72,2.44,5.01,3.48,7.87h10.38Z"/><path class="cls-2" d="m110.67,125.23c-1.53,0-2.58.07-4.11.21v-3.69c-1.32,1.18-1.74,1.53-3.2,2.72-.91-2.85-1.6-4.32-3.2-6.62,5.71-3.97,9.82-9.12,12.05-15.04h7.66c2.37,4.94,4.95,7.94,10.17,11.7-1.95,2.16-2.92,3.62-4.25,6.2l-.56-.49v5.22c-1.53-.21-2.16-.21-4.11-.21h-2.02v4.67h2.79c2.09,0,3.62-.07,4.94-.28v-5.78c1.95.28,3.9.42,6.69.42h17.62c.14-2.09.21-2.79.28-3.97h-13.79c-3.13,0-4.6.07-6.34.28v-6.62c1.74.28,3.06.35,6.34.35h14.07c.14-1.74.14-1.95.21-3.83h-15.6c-2.92,0-4.94.07-6.62.28v-6.69c1.95.28,3.83.35,6.96.35h16.37c2.86,0,4.74-.07,6.41-.28q-.21,1.6-.42,6.76c-.21,3.62-.56,9.75-.84,13.37h.42c2.92,0,4.81-.14,6.69-.42v6.89c-1.88-.21-4.04-.35-6.62-.35h-9.33c.63,3.83,1.32,6.06,3.34,10.31,3.13-2.99,4.88-5.08,6.75-8.36l5.71,4.04c-3.48,4.25-6.41,7.45-9.26,9.89,3.06,4.32,5.78,6.89,10.72,10.03-1.88,2.37-2.86,3.97-4.18,6.83-4.46-3.83-6.27-5.78-8.5-8.98-2.3-3.27-3.41-5.57-5.29-10.79.14,1.39.28,3.97.42,7.73v8.91c0,4.67-2.02,6.34-7.66,6.34-1.53,0-3.41-.07-6.13-.28-.28-3.2-.63-4.67-1.6-7.03,2.23.49,4.18.7,5.43.7,2.58,0,3.06-.28,3.06-1.81v-6.62c-2.44,2.02-2.85,2.44-4.94,3.9q-1.18.84-5.92,4.11-1.11.77-2.3,1.6l-2.23-4.94v2.79c-7.1,2.3-12.4,3.69-18.66,4.94-3.27.63-3.34.63-5.5,1.25l-1.04-7.66c2.86,0,5.36-.35,10.86-1.46v-19.5h-3.62c-2.92,0-5.08.14-6.83.35v-7.1c1.81.21,3.97.35,6.89.35h3.55v-4.67h-1.74Zm-5.43,28.83c-.56-4.8-1.32-8.29-2.92-13.58l5.43-1.67c1.46,4.46,2.16,7.66,3.06,13.51l-5.57,1.74Zm5.57-35.1h10.38c1.25,0,1.67,0,2.58-.07-3.06-3.06-5.01-5.64-7.38-9.82-2.09,3.97-3.97,6.69-6.96,9.89h1.39Zm22.7,11.42c-2.72,0-4.53.07-6.2.28v5.99c-1.53-.28-2.92-.35-5.43-.35h-2.79v18.11c2.65-.63,3.9-1.04,7.59-2.16v1.46c5.57-2.72,10.24-5.78,15.46-10.1v-13.23h-8.63Zm-13.58,19.43c1.46-4.18,2.16-6.96,2.79-11.35l5.29,1.74c-.97,4.46-1.81,7.31-3.34,11.14l-4.74-1.53Zm14.14-17.48c3.27,4.6,4.18,6.06,6.06,10.38l-5.36,3.55c-1.88-4.53-3.48-7.52-6.13-11.07l5.43-2.86Z"/><polyline class="cls-1" points="44.31 196.26 30.13 213.43 154.29 213.43"/></g></svg>