<?xml version="1.0" encoding="UTF-8"?><svg id="_图层_2" xmlns="http://www.w3.org/2000/svg" viewBox="0 0 184.98 184.98"><defs><style>.cls-1{fill:#007c2f;}</style></defs><g id="user-mypage"><g id="puechase"><g id="charge"><path class="cls-1" d="m92.49,184.98c-24.7,0-47.93-9.62-65.4-27.09C9.62,140.42,0,117.19,0,92.49S9.62,44.56,27.09,27.09C44.56,9.62,67.78,0,92.49,0s47.93,9.62,65.4,27.09c17.47,17.47,27.09,40.69,27.09,65.4s-9.62,47.93-27.09,65.4c-17.47,17.47-40.69,27.09-65.4,27.09m0-169.16C50.21,15.82,15.82,50.21,15.82,92.49s34.4,76.67,76.67,76.67,76.67-34.39,76.67-76.67S134.76,15.82,92.49,15.82"/><path class="cls-1" d="m92.49,158.07c-17.52,0-33.99-6.82-46.38-19.21s-19.21-28.86-19.21-46.38,6.82-33.99,19.21-46.38c12.39-12.39,28.86-19.21,46.38-19.21s33.99,6.82,46.38,19.21c12.39,12.39,19.21,28.86,19.21,46.38s-6.82,33.99-19.21,46.38c-12.39,12.39-28.86,19.21-46.38,19.21m0-122.27c-31.26,0-56.68,25.43-56.68,56.68s25.43,56.68,56.68,56.68,56.68-25.43,56.68-56.68-25.43-56.68-56.68-56.68"/><path class="cls-1" d="m86.21,103.21h10.17c14.23,0,22.87-8.9,22.87-23.22,0-13.35-8.82-23.04-22.61-23.04h-26.31v71.08h15.89v-24.82Zm-.26-31.97h7.11c5.76,0,10.3,2.12,10.3,8.84s-4.54,8.84-10.21,8.84h-7.2v-17.68Z"/></g></g></g></svg>