<?xml version="1.0" encoding="UTF-8"?><svg id="_图层_2" xmlns="http://www.w3.org/2000/svg" viewBox="0 0 30.98 10.92"><defs><style>.cls-1{fill:#007c2f;}</style></defs><g id="user-mypage"><g id="puechase"><g id="_マイページ"><path class="cls-1" d="m30.98,2.69L30.06.01c-.08.03-8.03,2.74-14.16,2.74-3.71,0-8.35-.98-11.59-1.8C2.26.44.86,0,.84,0l-.84,2.71s.79.25,1.99.57l-1.47,3.32,2.59,1.15,1.67-3.76c1.3.31,2.76.62,4.26.89l-1.11,5.41,2.78.57,1.14-5.56c1.39.17,2.77.28,4.05.28.6,0,1.21-.03,1.83-.07l.98,5.41,2.79-.51-.95-5.2c1.79-.26,3.53-.62,5.06-.99l1.86,4.08,2.58-1.18-1.66-3.64c1.49-.43,2.47-.76,2.58-.8Z"/></g></g></g></svg>