<?xml version="1.0" encoding="UTF-8"?><svg id="_图层_2" xmlns="http://www.w3.org/2000/svg" viewBox="0 0 212.72 333.64"><defs><style>.cls-1{fill:#fffffc;}.cls-2{fill:#007c2f;stroke:#000;stroke-miterlimit:10;stroke-width:5.67px;}</style></defs><g id="_ユーザーログイン画面"><rect class="cls-2" x="2.83" y="2.83" width="207.06" height="327.97"/><path class="cls-1" d="m153.25,62.88c-2.05,0-3.18.05-4.45.2v-5.23c1.22.2,2.25.25,4.55.25h1.17c-.68-2.74-1.17-4.01-2.15-5.77l4.3-1.08h-2.3c-2.15,0-3.28.05-4.6.2v-5.23c1.22.2,2.35.24,4.69.24h3.72v-.73c0-1.66-.05-2.35-.24-3.57h5.92c-.2,1.17-.24,1.81-.24,3.57v.73h3.33c2.3,0,3.28-.05,4.55-.24v5.23c-1.32-.15-2.49-.2-4.6-.2h-2l4.16,1.17q-.29.64-.73,1.71-.29.49-.83,1.81c-.34.83-.54,1.17-1.08,2.15h.98c2.2,0,3.23-.05,4.5-.25v5.23c-1.37-.15-2.4-.2-4.5-.2h-3.96v3.47h3.77c2.1,0,3.18-.05,4.45-.25v5.14c-1.27-.15-2.4-.2-4.45-.2h-1.81c1.47,1.71,2.69,2.74,5.04,4.3-1.08,1.81-1.61,2.84-2.35,4.65-2.45-2.2-3.23-3.03-4.79-5.28q.05.64.1,1.91c0,.15.05,1.66.05,1.91v4.89c0,1.71.1,2.89.29,4.06h-5.62c.15-1.12.25-2.3.25-3.86v-4.89c0-.93.05-2.2.15-3.33-2,3.77-4.25,6.31-8.07,9.05-.68-2.01-1.37-3.38-2.49-4.99,3.72-2.3,6.46-4.99,8.56-8.41h-3.18c-2.1,0-3.13.05-4.45.25v-5.18c1.27.2,2.25.25,4.55.25h4.94v-3.47h-5.09Zm3.77-11.64c1.08,2.1,1.47,3.13,2.1,5.67l-4.35,1.17h6.7c1.37-2.54,2-4.11,2.74-6.85h-7.19Zm32.67,5.92c2.15,0,3.37-.1,4.45-.29v5.43c-1.22-.15-2.01-.2-3.91-.2h-1.22v19.71c0,2.93.05,4.3.29,5.77h-5.72c.24-1.52.29-2.93.29-5.77v-19.71h-5.23c-.05,6.21-.64,11.35-1.81,15.8-.98,3.81-2.49,7.24-4.35,9.83-1.96-1.61-2.79-2.15-4.84-3.23,4.65-5.67,5.87-12.08,5.87-30.61,0-4.11-.05-5.67-.29-7.63,5.53-.15,13.99-2.3,16.48-4.16l4.01,4.74c-.54.15-.73.24-1.61.54-3.91,1.47-6.99,2.2-13.4,3.33v6.46h11Z"/><path class="cls-1" d="m161.22,128.57c2.25,3.96,4.16,6.21,7.53,9-.29.39-.49.68-.64.88q-1.03,1.37-2.3,3.77c-2.88-2.88-4.21-4.6-5.87-7.73-.64,2.49-1.32,4.35-2.49,6.65-1.61,3.08-2.84,4.74-5.48,7.19-1.42-2.05-2.05-2.74-3.86-4.25,2.98-2.54,4.45-4.4,5.77-7.48.98-2.3,1.61-4.65,2.05-8.02h-2.2c-1.71,0-3.28.1-4.6.29v-5.53c1.32.2,2.64.29,4.35.29h2.79c.1-2.15.15-3.62.2-6.36h-2.49c-1.42,0-2.64.1-4.11.24v-5.18c1.37.2,2.59.29,4.35.29h2.3c0-4.79,0-5.58-.29-7.38h5.67q-.24,1.61-.29,7.38h1.71c1.71,0,2.89-.05,4.25-.24v5.13c-1.32-.2-2.35-.24-3.81-.24h-2.2c-.05,2.79-.1,3.81-.25,6.36h2.2c1.66,0,2.93-.05,4.25-.25v5.43c-1.32-.2-2.35-.24-3.81-.24h-2.74Zm16.73,6.26c-.49,4.45-1.17,6.46-2.89,8.9-1.91,2.59-4.01,4.21-8.66,6.5-1.56-2.2-2.25-2.93-3.81-4.25,6.94-2.2,9.78-5.18,10.47-11.15-1.37,0-2.69.05-3.86.15.1-1.22.15-2.74.15-4.84v-18.88c0-2.05-.05-3.72-.2-4.84,1.12.15,2.49.2,4.69.2h12.32c2.64,0,3.47-.05,4.74-.2-.15,1.37-.2,2.74-.2,4.94v18.97c0,2.01.05,3.18.2,4.7-.59-.1-.73-.1-1.42-.1h-.98c-1.17-.05-1.96-.1-2.05-.1h-1.12v8.46c0,.88.39,1.08,1.96,1.08,2.05,0,2.2-.39,2.45-6.8,1.56,1.08,2.69,1.66,4.55,2.2-.49,8.56-1.27,9.49-7.73,9.49-4.5,0-6.11-.93-6.11-3.52v-10.91h-2.49Zm-3.62-20.2h11.39v-3.28h-11.39v3.28Zm0,7.68h11.39v-3.28h-11.39v3.28Zm0,7.82h11.39v-3.42h-11.39v3.42Z"/><path class="cls-1" d="m192.13,175.77c-.39.39-.44.44-.88,1.03-1.17,1.42-2.84,3.18-4.3,4.55,2.4,1.37,4.11,2.15,7.43,3.47-1.22,1.66-1.76,2.69-2.54,4.89-5.13-2.3-7.78-3.86-11.83-7.09v2.88c-.98-.15-1.61-.2-3.28-.2h-10.81c-1.27,0-2.2.05-3.08.2v-3.18c-4.11,3.33-6.8,4.99-12.18,7.58-.83-2.1-1.56-3.37-2.64-4.65,3.52-1.37,5.87-2.59,9.19-4.84-2.54-2.64-3.91-3.81-6.55-5.72l3.62-3.23c2.69,2.05,4.79,3.86,6.85,5.97,2.3-2,3.08-2.84,4.65-4.94h-6.46c-.98,0-1.86.05-2.98.2v-4.94c1.22.2,2.01.24,4.06.24h9.19c2.3,0,3.18-.05,4.21-.2.54,2,1.22,3.18,3.28,5.53,1.81-1.86,3.23-3.72,4.11-5.28l4.06,2.69c-1.27,1.71-3.37,4.01-5.04,5.62,1.22,1.08,1.81,1.56,3.03,2.44,2.1-1.96,3.77-3.96,4.84-5.77l4.06,2.74Zm-29.83,30.22c-.44-1.27-1.27-2.89-2-3.96l4.3-1.57h-5.23c-1.61,0-2.64.05-3.52.15.15-1.32.2-2.15.2-3.57v-6.16c0-1.27-.05-2.2-.2-3.33,1.27.15,2.25.2,3.86.2h23.08c1.71,0,2.64-.05,3.81-.2-.15,1.08-.2,1.86-.2,3.28v6.21c0,1.66.05,2.44.2,3.57-.93-.1-1.91-.15-3.52-.15h-4.74l4.06,1.47c-.78,1.47-1.91,3.57-2.25,4.06h8.36c2.3,0,3.37-.05,4.79-.25v5.28c-1.47-.2-2.74-.24-5.09-.24h-33.84c-2.35,0-3.57.05-5.09.24v-5.28c1.42.2,2.45.25,4.74.25h8.26Zm-1.22-9.93h20.15v-3.96h-20.15v3.96Zm15.7-15.11h1.22c-2.64-2.35-4.3-4.3-6.75-7.68-2.15,3.13-4.01,5.23-6.75,7.68h12.28Zm-1.91,25.04c1.08-1.91,2.05-4.01,2.49-5.53h-12.23c1.03,1.91,1.71,3.52,2.45,5.53h7.29Z"/><path class="cls-1" d="m155.55,245.47c-1.08,0-1.81.05-2.89.15v-2.59c-.93.83-1.22,1.08-2.25,1.91-.64-2.01-1.12-3.03-2.25-4.65,4.01-2.79,6.9-6.41,8.46-10.56h5.38c1.66,3.47,3.47,5.58,7.14,8.22-1.37,1.52-2.05,2.54-2.98,4.35l-.39-.34v3.67c-1.08-.15-1.52-.15-2.88-.15h-1.42v3.28h1.96c1.47,0,2.54-.05,3.47-.2v-4.06c1.37.2,2.74.29,4.7.29h12.37c.1-1.47.15-1.96.2-2.79h-9.68c-2.2,0-3.23.05-4.45.2v-4.65c1.22.2,2.15.24,4.45.24h9.88c.1-1.22.1-1.37.15-2.69h-10.95c-2.05,0-3.47.05-4.65.2v-4.69c1.37.2,2.69.24,4.89.24h11.49c2,0,3.33-.05,4.5-.2q-.15,1.12-.29,4.74c-.15,2.54-.39,6.85-.59,9.39h.29c2.05,0,3.37-.1,4.69-.29v4.84c-1.32-.15-2.84-.25-4.65-.25h-6.55c.44,2.69.93,4.25,2.35,7.24,2.2-2.1,3.42-3.57,4.74-5.87l4.01,2.84c-2.45,2.98-4.5,5.23-6.5,6.94,2.15,3.03,4.06,4.84,7.53,7.04-1.32,1.66-2,2.79-2.93,4.79-3.13-2.69-4.4-4.06-5.97-6.31-1.61-2.3-2.4-3.91-3.72-7.58.1.98.2,2.79.29,5.43v6.26c0,3.28-1.42,4.45-5.38,4.45-1.08,0-2.4-.05-4.3-.2-.2-2.25-.44-3.28-1.12-4.94,1.56.34,2.93.49,3.81.49,1.81,0,2.15-.2,2.15-1.27v-4.65c-1.71,1.42-2,1.71-3.47,2.74q-.83.59-4.16,2.89-.78.54-1.61,1.12l-1.57-3.47v1.96c-4.99,1.61-8.71,2.59-13.11,3.47-2.3.44-2.35.44-3.86.88l-.73-5.38c2,0,3.77-.24,7.63-1.03v-13.69h-2.54c-2.05,0-3.57.1-4.79.24v-4.99c1.27.15,2.79.25,4.84.25h2.49v-3.28h-1.22Zm-3.81,20.25c-.39-3.38-.93-5.82-2.05-9.54l3.81-1.17c1.03,3.13,1.52,5.38,2.15,9.49l-3.91,1.22Zm3.91-24.65h7.29c.88,0,1.17,0,1.81-.05-2.15-2.15-3.52-3.96-5.18-6.9-1.47,2.79-2.79,4.7-4.89,6.94h.98Zm15.94,8.02c-1.91,0-3.18.05-4.35.2v4.21c-1.08-.2-2.05-.24-3.81-.24h-1.96v12.71c1.86-.44,2.74-.73,5.33-1.52v1.03c3.91-1.91,7.19-4.06,10.86-7.09v-9.29h-6.06Zm-9.54,13.64c1.03-2.93,1.52-4.89,1.96-7.97l3.72,1.22c-.69,3.13-1.27,5.13-2.35,7.83l-3.33-1.08Zm9.93-12.28c2.3,3.23,2.93,4.25,4.25,7.29l-3.77,2.49c-1.32-3.18-2.45-5.28-4.3-7.78l3.81-2.01Z"/></g></svg>