<?xml version="1.0" encoding="UTF-8"?><svg id="_图层_2" xmlns="http://www.w3.org/2000/svg" viewBox="0 0 178.31 241.05"><defs><style>.cls-1{fill:none;stroke:#fbeedd;stroke-linejoin:bevel;stroke-width:8.5px;}.cls-2{fill:#fbeedd;}.cls-3{fill:#007c2f;stroke:#000;stroke-miterlimit:10;stroke-width:5.67px;}</style></defs><g id="_管理者レジスター"><rect class="cls-3" x="2.83" y="2.83" width="172.64" height="235.38"/><polyline class="cls-1" points="140.12 196.26 154.29 213.43 30.13 213.43"/><path class="cls-2" d="m69.42,59c-.45,20.96-3.36,31.66-11.88,43.81-2.45-2.9-4.44-4.9-7.89-7.44,8.35-11.7,10.34-21.32,10.34-50.35,0-3.54-.09-6.17-.36-9.07,2.81.27,5.81.36,9.89.36h50.35c3.9,0,6.17-.09,8.16-.36-.18,1.91-.27,3.72-.27,6.71v9.71c0,3.17.09,4.9.27,6.99-2.18-.27-4.63-.36-8.16-.36h-50.44Zm64.04-27.21c-3.17-.36-5.35-.45-10.52-.45h-59.24c-4.63,0-7.26.09-10.52.45v-9.8c3.08.36,6.08.54,10.52.54h59.24c4.81,0,7.53-.18,10.52-.54v9.8Zm-27.49,45.27c3.08,4.9,6.44,7.98,11.52,10.71,4.54,2.45,9.43,3.81,17.51,5.08-2,4.26-2.63,5.99-3.54,9.89-9.71-2.27-14.88-4.26-20.5-8.07-4.99-3.36-8.53-7.08-11.79-12.43-2.63,4.99-5.62,8.44-10.25,11.61-5.71,3.99-10.61,6.17-19.87,8.89-1.27-3.54-2.36-5.71-4.99-9.43,14.97-2.81,23.04-7.62,27.4-16.24h-11.07c-3.63,0-6.44.09-9.43.45v-9.43c2.54.36,4.9.45,9.43.45h13.43c.36-2.81.45-3.72.45-5.99,0-.36-.09-.91-.18-1.91h10.25q-.27,1.18-.45,3.9c-.09,1.09-.18,1.9-.45,3.99h19.59c4.63,0,7.17-.09,9.71-.45v9.53c-3.08-.36-6.08-.54-9.71-.54h-17.05Zm12.34-25.94v-6.89h-48.71v3.17c0,1.45,0,2.63-.09,3.72h48.8Z"/><path class="cls-2" d="m79.86,148.89c8.25-3.27,12.25-4.17,19.05-4.17,15.51,0,25.49,7.98,25.49,20.41,0,8.62-4.26,15.51-12.34,20.05-5.9,3.36-13.61,5.17-21.95,5.17-7.62,0-13.97-1.45-17.6-4.17-3.45-2.54-5.44-6.35-5.44-10.43,0-7.53,6.53-12.97,15.6-12.97,6.35,0,11.88,2.63,15.69,7.44,1.81,2.27,2.81,4.26,4.17,8.17,7.53-2.81,10.79-6.71,10.79-13.15,0-7.08-6.98-11.7-17.96-11.7-13.24,0-26.49,5.35-37.37,15.24l-6.17-9.8c3.18-1.54,6.8-3.99,12.79-8.53,8.44-6.44,20.23-16.6,27.12-23.58l1.63-1.63-.09-.09c-3.45.45-9.25.82-25.67,1.54-2,.09-2.63.18-4.35.45l-.45-10.88c3.08.36,5.71.54,10.7.54,7.71,0,18.78-.45,27.58-1.09,3.17-.27,4.17-.45,5.62-1.18l5.62,7.98c-1.54.82-2.18,1.36-4.72,3.72-4.54,4.17-11.16,10.07-14.24,12.7-1.63,1.36-8.16,6.26-9.98,7.44q-2.27,1.54-3.72,2.36l.18.18Zm2.72,22.59c-3.27,0-5.35,1.63-5.35,4.17,0,3.63,4.08,5.71,10.79,5.71,1.72,0,2.18,0,4.72-.36-1.63-6.26-5.08-9.52-10.16-9.52Z"/></g></svg>