<?xml version="1.0" encoding="UTF-8"?><svg id="_图层_2" xmlns="http://www.w3.org/2000/svg" viewBox="0 0 1921.42 2086.3"><defs><style>.cls-1{fill:none;stroke:#000;stroke-miterlimit:10;stroke-width:1.42px;}.cls-2{opacity:.49;}</style></defs><g id="_管理者ログイン画面"><g id="_背景"><g class="cls-2"><line class="cls-1" x1="1920.71" y1=".71" x2="1920.71" y2="2085.59"/><line class="cls-1" x1=".71" y1=".71" x2=".71" y2="2085.59"/><line class="cls-1" x1="1829.28" y1=".71" x2="1829.28" y2="2085.59"/><line class="cls-1" x1="1737.85" y1=".71" x2="1737.85" y2="2085.59"/><line class="cls-1" x1="1646.42" y1=".71" x2="1646.42" y2="2085.59"/><line class="cls-1" x1="1554.99" y1=".71" x2="1554.99" y2="2085.59"/><line class="cls-1" x1="1463.57" y1=".71" x2="1463.57" y2="2085.59"/><line class="cls-1" x1="1372.14" y1=".71" x2="1372.14" y2="2085.59"/><line class="cls-1" x1="914.99" y1=".71" x2="914.99" y2="2085.59"/><line class="cls-1" x1="823.57" y1=".71" x2="823.57" y2="2085.59"/><line class="cls-1" x1="732.14" y1=".71" x2="732.14" y2="2085.59"/><line class="cls-1" x1="640.71" y1=".71" x2="640.71" y2="2085.59"/><line class="cls-1" x1="549.28" y1=".71" x2="549.28" y2="2085.59"/><line class="cls-1" x1="457.85" y1=".71" x2="457.85" y2="2085.59"/><line class="cls-1" x1="366.42" y1=".71" x2="366.42" y2="2085.59"/><line class="cls-1" x1="274.99" y1=".71" x2="274.99" y2="2085.59"/><line class="cls-1" x1="183.57" y1=".71" x2="183.57" y2="2085.59"/><line class="cls-1" x1="92.14" y1=".71" x2="92.14" y2="2085.59"/><line class="cls-1" x1="1280.71" y1=".71" x2="1280.71" y2="2085.59"/><line class="cls-1" x1="1189.28" y1=".71" x2="1189.28" y2="2085.59"/><line class="cls-1" x1="1097.85" y1=".71" x2="1097.85" y2="2085.59"/><line class="cls-1" x1="1006.42" y1=".71" x2="1006.42" y2="2085.59"/><line class="cls-1" x1="1920.71" y1=".71" x2=".71" y2=".71"/><line class="cls-1" x1="1920.71" y1="914.99" x2=".71" y2="914.99"/><line class="cls-1" x1="1920.71" y1="823.57" x2=".71" y2="823.57"/><line class="cls-1" x1="1920.71" y1="732.14" x2=".71" y2="732.14"/><line class="cls-1" x1="1920.71" y1="640.71" x2=".71" y2="640.71"/><line class="cls-1" x1="1920.71" y1="549.28" x2=".71" y2="549.28"/><line class="cls-1" x1="1920.71" y1="457.85" x2=".71" y2="457.85"/><line class="cls-1" x1="1920.71" y1="366.42" x2=".71" y2="366.42"/><line class="cls-1" x1="1920.71" y1="274.99" x2=".71" y2="274.99"/><line class="cls-1" x1="1920.71" y1="183.57" x2=".71" y2="183.57"/><line class="cls-1" x1="1920.71" y1="92.14" x2=".71" y2="92.14"/><line class="cls-1" x1="1920.71" y1="1006.42" x2=".71" y2="1006.42"/><line class="cls-1" x1="1920.71" y1="1079.88" x2=".71" y2="1079.88"/><line class="cls-1" x1="1920.71" y1="1994.17" x2=".71" y2="1994.17"/><line class="cls-1" x1="1920.71" y1="1902.74" x2=".71" y2="1902.74"/><line class="cls-1" x1="1920.71" y1="1811.31" x2=".71" y2="1811.31"/><line class="cls-1" x1="1920.71" y1="1719.88" x2=".71" y2="1719.88"/><line class="cls-1" x1="1920.71" y1="1628.45" x2=".71" y2="1628.45"/><line class="cls-1" x1="1920.71" y1="1537.02" x2=".71" y2="1537.02"/><line class="cls-1" x1="1920.71" y1="1445.59" x2=".71" y2="1445.59"/><line class="cls-1" x1="1920.71" y1="1354.17" x2=".71" y2="1354.17"/><line class="cls-1" x1="1920.71" y1="1262.74" x2=".71" y2="1262.74"/><line class="cls-1" x1="1920.71" y1="1171.31" x2=".71" y2="1171.31"/><line class="cls-1" x1="1920.71" y1="2085.59" x2=".71" y2="2085.59"/></g></g></g></svg>