<?xml version="1.0" encoding="UTF-8"?><svg id="_图层_2" xmlns="http://www.w3.org/2000/svg" viewBox="0 0 178.31 260.51"><defs><style>.cls-1{fill:#fbeedd;}.cls-1,.cls-2{stroke:#000;stroke-miterlimit:10;stroke-width:5.67px;}</style></defs><g id="_管理者登録完成"><polygon class="cls-2" points="175.47 3.13 19.32 18.44 18.3 257.68 2.83 257.68 2.83 3.13 175.47 3.13"/><polygon class="cls-1" points="175.47 3.13 175.47 257.68 18.3 257.68 19.32 18.44 175.47 3.13"/><circle cx="44.76" cy="140.66" r="14.41"/><path d="m115.21,67.69v4.35h-8.02c.19-1.49.25-2.98.25-5.35V31.08c0-2.36-.06-3.54-.25-5.22,1.49.12,2.8.19,5.28.19h35.31c2.67,0,3.79-.06,5.22-.19-.12,1.62-.19,2.86-.19,5.16v35.56c0,2.3.06,3.98.25,5.41h-8.02v-4.29h-29.84Zm29.84-34.63h-29.84v27.54h29.84v-27.54Z"/><path d="m152.01,93.24c-.56.81-.87,1.55-1.55,3.73-3.67,11.07-6.65,16.6-12.5,23.5-5.53,6.34-13.18,11.81-22.13,15.73-1.62-2.92-2.74-4.29-5.28-6.53,16.29-6.22,26.79-17.34,31.77-33.51l-18.71.25c-3.48,5.72-9.39,12.18-14.55,15.98-1.86-2.55-2.8-3.36-6.03-5.35,6.71-4.48,11.69-10.07,16.1-18.03,1.86-3.36,2.98-6.28,3.17-8.27l8.52,1.74c-.44.56-.5.68-1.06,1.87-.5,1.12-1.06,2.36-1.68,3.61-.31.56-.31.62-.43.87l-.5.93c.75-.06,1.74-.12,2.98-.12l13.61-.19c1.68,0,2.73-.06,3.23-.12-1.43-3.11-2.55-5.1-4.54-7.77l4.6-1.55c2.42,3.23,3.85,5.72,5.53,9.82l-2.67,1,2.11,2.42Zm4.04-4.48c-1.49-3.67-3.29-6.84-5.35-9.64l4.48-1.55c2.55,3.29,3.98,5.78,5.47,9.45l-4.6,1.74Z"/><path d="m153.63,138.68c-1.06.93-1.37,1.18-2.3,2.18-4.66,4.85-9.33,8.89-14.67,12.81v26.54c0,3.42.06,5.22.31,6.9h-8.7c.31-1.8.37-3.05.37-6.71v-21.88c-7.27,4.35-10.75,5.97-22.19,10.07-1.31-3.23-1.99-4.29-4.17-7.09,12.31-3.36,22.75-8.52,32.64-16.16,5.53-4.29,9.76-8.58,11.56-11.62l7.15,4.97Z"/><path d="m106.45,230.49c5.35-.31,12.74-2.11,18.4-4.6,7.77-3.36,13.55-8.14,18.46-15.23,2.74-3.98,4.48-7.4,6.34-12.43,2.42,2.92,3.42,3.85,6.59,6.09-5.28,11.38-11.19,18.71-19.71,24.37-6.34,4.23-14.05,7.27-23.68,9.33-2.49.5-2.67.56-4.1,1.06l-2.3-8.58Zm5.28-38.6c7.4,4.6,11.25,7.46,16.04,12l-5.35,6.78c-4.97-5.28-10.07-9.39-15.85-12.62l5.16-6.15Z"/></g></svg>