<?xml version="1.0" encoding="UTF-8"?><svg id="_图层_2" xmlns="http://www.w3.org/2000/svg" viewBox="0 0 156.47 241.91"><defs><style>.cls-1{stroke-miterlimit:10;}.cls-1,.cls-2,.cls-3,.cls-4,.cls-5{stroke:#000;stroke-width:5.67px;}.cls-1,.cls-2,.cls-5{fill:#fbeedd;}.cls-2{stroke-linecap:round;}.cls-2,.cls-5{stroke-linejoin:round;}.cls-3{fill:#fbca5a;}.cls-3,.cls-4{stroke-linejoin:bevel;}.cls-4{fill:#007c2f;}.cls-5{stroke-linecap:square;}</style></defs><g id="_講座削除完了画面"><ellipse class="cls-1" cx="78.23" cy="219.35" rx="56.36" ry="19.72"/><ellipse class="cls-1" cx="78.23" cy="56.23" rx="75.4" ry="19.72"/><path class="cls-5" d="m76,94.16l2.84-34.21,12.1,9.13,4.37-7.34,5.66-13.72,27.3,7.88,11.42,25.45-27.6,20.05s-14.28,15.41-15.59,15.32-21.47-16.75-21.47-16.75l.97-5.79Z"/><path class="cls-2" d="m44.64,2.83S10.6,8.78,11.78,24.13c1.17,15.35,19.56,193.28,19.56,193.28h21.13L44.64,2.83Z"/><path class="cls-4" d="m63.42,15.98S28.21,39,11.78,24.13l19.56,193.28h21.13L63.42,15.98Z"/><path class="cls-3" d="m78.23,75.95c-40.13,0-72.94-8.2-75.26-18.54l18.9,161.95c0,10.89,25.23,19.72,56.36,19.72s56.36-8.83,56.36-19.72l18.9-161.95c-2.33,10.34-35.13,18.54-75.26,18.54Z"/></g></svg>