<?xml version="1.0" encoding="UTF-8"?><svg id="_图层_2" xmlns="http://www.w3.org/2000/svg" viewBox="0 0 359.59 359.59"><defs><style>.cls-1{fill:#ff9f2c;}.cls-2{fill:#fbeedd;}</style></defs><g id="Password_reset_finish"><polygon points="0 166.29 173.31 0 359.59 0 0 359.59 0 166.29"/><path class="cls-2" d="m68.61,199.17c.18.18.32.23.5.05l11.03-11.03c.27-.27.59-.23.81.09l5.51,7.86c.23.32.23.68-.04.95l-19.93,19.93c-.23.23-.59.23-.81-.09l-24.54-35.12c-.23-.32-.23-.68,0-.9l19.98-19.98c.27-.27.59-.23.81.09l5.47,7.91c.23.32.23.68,0,.9l-11.12,11.12c-.14.14-.18.36,0,.54l12.34,17.67Z"/><path class="cls-2" d="m65.22,157.73c-.23-.32-.23-.68.05-.95l7.77-7.77c.36-.36.72-.45,1.13-.23l20.16,11.21.18-.18-12.93-18.44c-.23-.32-.23-.68.05-.95l7.37-7.37c.23-.23.59-.23.81.09l24.54,35.12c.23.32.23.68-.04.95l-7.86,7.86c-.27.27-.63.36-1.04.14l-20.11-11.25-.23.23,12.93,18.44c.23.32.23.68-.04.95l-7.32,7.32c-.27.27-.63.27-.86-.05l-24.54-35.12Z"/><path class="cls-2" d="m115.03,162.52c-.32.05-.63-.27-.63-.72l-.09-8.14c0-.36.23-.68.68-.77,4.11-.95,6.78-2.26,9.13-4.61,1.45-1.45,1.72-2.98,1.04-3.66-.45-.45-1.13-.41-3.03,1.13l-2.67,2.12c-4.52,3.61-8.95,4.16-12.29.81-5.42-5.42-4.7-13.02,2.12-19.84,4.16-4.16,8.86-6.24,12.34-6.46.32-.05.59.32.59.77l.23,7.55c0,.45-.18.72-.54.81-2.58.59-5.15,1.72-7.5,4.07-1.31,1.31-1.54,2.62-.95,3.21.45.45,1.13.5,2.71-.81l2.62-2.08c5.7-4.61,9.85-4.34,12.88-1.31,5.47,5.47,4.7,13.65-2.67,21.02-4.7,4.7-9.72,6.65-13.97,6.92Z"/><path class="cls-2" d="m155.48,128.04c-.32.32-.63.36-1.04.14l-10.44-6.1.27,2.8,5.56,7.91c.23.32.23.68-.04.95l-7.77,7.77c-.23.23-.59.23-.81-.09l-24.68-34.98c-.23-.32-.23-.68,0-.9l7.82-7.82c.27-.27.63-.27.86.04l11.8,16.77-.95-10.53c-.04-.59.14-.95.5-1.31l7.82-7.82c.32-.32.63-.18.68.23l.54,15.01,17.76,9.18c.32.14.45.45.18.72l-8.04,8.04Z"/><path class="cls-2" d="m166.23,117.28c-.23.23-.59.23-.81-.09l-17.49-24.99c-.23-.32-.18-.72.05-.95l7.86-7.86c.27-.27.59-.23.81.09l17.49,24.99c.23.32.23.68-.04.95l-7.86,7.86Zm-20.11-28.7c-.27.27-.59.23-.81-.09l-4.47-6.37c-.23-.32-.23-.68.05-.95l7.86-7.86c.27-.27.59-.23.81.09l4.48,6.37c.23.32.23.68-.05.95l-7.86,7.86Z"/><path class="cls-2" d="m186.57,97.48c-6.33,6.33-10.31,5.24-15.19-1.63l-18.12-26.17c-.23-.32-.23-.68,0-.9l7.86-7.86c.27-.27.63-.27.86.04l17.22,24.9c1.36,1.9,2.4,2.21,3.66.95l.86-.86c.23-.23.59-.23.81.09l5.15,7.41c.23.32.18.72-.04.95l-3.07,3.07Z"/><path class="cls-2" d="m200.99,83.07c-6.33,6.33-10.31,5.24-15.19-1.63l-18.12-26.17c-.23-.32-.23-.68,0-.9l7.86-7.86c.27-.27.63-.27.86.04l17.22,24.9c1.36,1.9,2.4,2.21,3.66.95l.86-.86c.23-.23.59-.23.81.09l5.15,7.41c.23.32.18.72-.04.95l-3.07,3.07Z"/><path class="cls-2" d="m200.67,67.93c-.23-.32-.23-.68.05-.95l7.01-7.01c.27-.27.63-.27.86.04l5.79,8.23c.23.32.23.68-.04.95l-6.96,6.96c-.27.27-.63.27-.86-.05l-5.83-8.18Z"/><path class="cls-1" d="m54.12,196l3.51-3.98c3.29-3.73,4.22-9,2.4-13.63l-1.94-4.94,3.98,3.51c3.73,3.29,9,4.22,13.63,2.4l4.94-1.94-3.51,3.98c-3.29,3.73-4.22,9-2.4,13.63l1.94,4.94-3.98-3.51c-3.73-3.29-9-4.22-13.63-2.4l-4.94,1.94Z"/></g></svg>