<?xml version="1.0" encoding="UTF-8"?><svg id="_图层_2" xmlns="http://www.w3.org/2000/svg" viewBox="0 0 135.83 184.44"><defs><style>.cls-1{fill:#fbeedd;stroke:#000;stroke-miterlimit:10;stroke-width:5.67px;}</style></defs><g id="_管理者ログイン画面"><rect class="cls-1" x="2.83" y="2.83" width="130.16" height="178.77"/><path d="m56.67,51.13v21.2h-21.2v-21.2h21.2Zm0,62.15v21.2h-21.2v-21.2h21.2Z"/><path d="m69.45,147.98c8.42-12.34,11.91-18.88,15.1-28.75,3.05-9.73,4.65-20.04,4.65-31.51s-1.6-22.07-4.94-32.09c-3.19-10.16-6.68-16.7-15.1-28.9l15.39-9.87c10.02,14.38,14.23,22.36,18.3,34.41,3.63,11.33,5.52,23.38,5.52,36.16,0,15.39-2.61,29.19-8.28,43.27-4.07,9.87-7.41,15.83-15.54,27.59l-15.1-10.31Z"/></g></svg>