<?xml version="1.0" encoding="UTF-8"?><svg id="_图层_2" xmlns="http://www.w3.org/2000/svg" viewBox="0 0 129.64 34.62"><defs><style>.cls-1{fill:#007c2f;}</style></defs><g id="_ユーザー登録"><path class="cls-1" d="m5.96.51c.05-.31.25-.51.56-.51h5.8c.41,0,.66.15.76.51l7.89,22.25h.2L25.16.51c.05-.31.25-.51.56-.51h5.5c.31,0,.51.2.46.51l-5.96,33.61c-.05.3-.25.51-.56.51h-5.86c-.31,0-.56-.15-.71-.51l-7.94-22.25h-.25l-3.92,22.25c-.05.3-.25.51-.51.51H.47c-.31,0-.51-.2-.46-.51L5.96.51Z"/><path class="cls-1" d="m29.64,34.12L47.1.51c.15-.31.41-.51.76-.51h6.16c.36,0,.51.2.56.51l5.35,33.61c.05.3-.1.51-.36.51h-6.21c-.36,0-.56-.15-.61-.51l-.81-6.21h-11.66l-3,6.21c-.15.36-.31.51-.66.51h-6.72c-.31,0-.41-.2-.25-.51Zm21.54-12.32l-1.58-12.63h-.15l-6.16,12.63h7.89Z"/><path class="cls-1" d="m69.86.51c.05-.31.25-.51.56-.51h5.45c.41,0,.66.15.76.51l4.94,20.16h.15L93.64.51c.2-.36.46-.51.81-.51h6.06c.31,0,.51.2.46.51l-5.96,33.61c-.05.3-.25.51-.56.51h-5.5c-.31,0-.51-.2-.46-.51l3.56-20.11h-.2l-9.01,15.17c-.25.51-.61.66-1.02.66h-3.26c-.36,0-.66-.15-.81-.66l-3.62-15.17h-.2l-3.56,20.11c-.05.3-.25.51-.51.51h-5.5c-.31,0-.51-.2-.46-.51L69.86.51Z"/><path class="cls-1" d="m107.38.51c.05-.31.25-.51.56-.51h21.28c.31,0,.46.2.41.51l-.92,5.19c-.05.31-.31.51-.56.51h-14.36c-.2,0-.31.1-.36.3l-1.27,7.28c-.05.2.05.31.25.31h11.92c.31,0,.46.2.41.51l-.92,5.09c-.05.31-.31.51-.61.51h-11.92c-.2,0-.31.1-.36.31l-1.32,7.59c-.05.2.05.31.25.31h14.36c.31,0,.46.2.41.51l-.97,5.19c-.05.3-.25.51-.56.51h-21.23c-.31,0-.51-.2-.46-.51L107.38.51Z"/></g></svg>