<?xml version="1.0" encoding="UTF-8"?><svg id="_图层_2" xmlns="http://www.w3.org/2000/svg" viewBox="0 0 1921.42 1080.71"><defs><style>.cls-1{fill:#007c2f;}.cls-2{fill:#fbeedd;}.cls-3{fill:none;stroke:#000;stroke-miterlimit:10;stroke-width:1.42px;}.cls-4{opacity:.49;}</style></defs><g id="_管理者ログイン画面"><g id="_背景"><rect class="cls-2" x=".71" y=".71" width="1920" height="1080"/><polygon class="cls-1" points=".71 .71 1620.53 .71 430.88 1080.71 .71 1080.71 .71 .71"/><g class="cls-4"><line class="cls-3" x1="1920.71" y1=".71" x2="1920.71" y2="1080.71"/><line class="cls-3" x1=".71" y1=".71" x2=".71" y2="1080.71"/><line class="cls-3" x1="1829.28" y1=".71" x2="1829.28" y2="1080.71"/><line class="cls-3" x1="1737.85" y1=".71" x2="1737.85" y2="1080.71"/><line class="cls-3" x1="1646.42" y1=".71" x2="1646.42" y2="1080.71"/><line class="cls-3" x1="1554.99" y1=".71" x2="1554.99" y2="1080.71"/><line class="cls-3" x1="1463.57" y1=".71" x2="1463.57" y2="1080.71"/><line class="cls-3" x1="1372.14" y1=".71" x2="1372.14" y2="1080.71"/><line class="cls-3" x1="914.99" y1=".71" x2="914.99" y2="1080.71"/><line class="cls-3" x1="823.57" y1=".71" x2="823.57" y2="1080.71"/><line class="cls-3" x1="732.14" y1=".71" x2="732.14" y2="1080.71"/><line class="cls-3" x1="640.71" y1=".71" x2="640.71" y2="1080.71"/><line class="cls-3" x1="549.28" y1=".71" x2="549.28" y2="1080.71"/><line class="cls-3" x1="457.85" y1=".71" x2="457.85" y2="1080.71"/><line class="cls-3" x1="366.42" y1=".71" x2="366.42" y2="1080.71"/><line class="cls-3" x1="274.99" y1=".71" x2="274.99" y2="1080.71"/><line class="cls-3" x1="183.57" y1=".71" x2="183.57" y2="1080.71"/><line class="cls-3" x1="92.14" y1=".71" x2="92.14" y2="1080.71"/><line class="cls-3" x1="1280.71" y1=".71" x2="1280.71" y2="1080.71"/><line class="cls-3" x1="1189.28" y1=".71" x2="1189.28" y2="1080.71"/><line class="cls-3" x1="1097.85" y1=".71" x2="1097.85" y2="1080.71"/><line class="cls-3" x1="1006.42" y1=".71" x2="1006.42" y2="1080.71"/><line class="cls-3" x1="1920.71" y1=".71" x2=".71" y2=".71"/><line class="cls-3" x1="1920.71" y1="914.99" x2=".71" y2="914.99"/><line class="cls-3" x1="1920.71" y1="823.57" x2=".71" y2="823.57"/><line class="cls-3" x1="1920.71" y1="732.14" x2=".71" y2="732.14"/><line class="cls-3" x1="1920.71" y1="640.71" x2=".71" y2="640.71"/><line class="cls-3" x1="1920.71" y1="549.28" x2=".71" y2="549.28"/><line class="cls-3" x1="1920.71" y1="457.85" x2=".71" y2="457.85"/><line class="cls-3" x1="1920.71" y1="366.42" x2=".71" y2="366.42"/><line class="cls-3" x1="1920.71" y1="274.99" x2=".71" y2="274.99"/><line class="cls-3" x1="1920.71" y1="183.57" x2=".71" y2="183.57"/><line class="cls-3" x1="1920.71" y1="92.14" x2=".71" y2="92.14"/><line class="cls-3" x1="1920.71" y1="1006.42" x2=".71" y2="1006.42"/></g></g></g></svg>