<?xml version="1.0" encoding="UTF-8"?><svg id="_图层_2" xmlns="http://www.w3.org/2000/svg" viewBox="0 0 72.85 61.42"><defs><style>.cls-1{fill:#007c2f;}</style></defs><g id="_講座一覧画面"><path class="cls-1" d="m69.67,46H20.17l3.02-5.96c.06-.11.1-.23.13-.34.24-.14.44-.32.6-.54h43.57l5.37-27.46H16.43L12.9,0,1.9.25C.83.27-.02,1.16,0,2.23c.02,1.07.92,1.9,1.98,1.9l8.05-.18,10.19,33.72c-.2.16-.37.37-.49.62l-4.45,8.78c-.3.6-.28,1.32.08,1.89.35.58.98.93,1.65.93h52.66c1.07,0,1.94-.87,1.94-1.94s-.87-1.94-1.94-1.94Z"/><path class="cls-1" d="m30.34,52.23c-2.54,0-4.59,2.06-4.59,4.59s2.06,4.59,4.59,4.59,4.59-2.06,4.59-4.59-2.06-4.59-4.59-4.59Z"/><circle class="cls-1" cx="57.84" cy="56.82" r="4.59"/></g></svg>