<?xml version="1.0" encoding="UTF-8"?><svg id="_图层_2" xmlns="http://www.w3.org/2000/svg" viewBox="0 0 194.26 199.37"><defs><style>.cls-1{fill:#007c2f;}</style></defs><g id="user-mypage"><g id="puechase"><g id="charge"><path class="cls-1" d="m176.12,93.64c-11.7-11.7-27.25-18.14-43.79-18.14v-42.22c0-9.83-7.54-18.65-21.24-24.82C98.99,3.01,83.03,0,66.17,0S33.35,3.01,21.24,8.46C7.54,14.64,0,23.45,0,33.29v101.48c0,9.83,7.54,18.65,21.24,24.82,12.1,5.46,28.06,8.46,44.92,8.46,4.07,0,8.08-.18,12.01-.52,2.77,4.96,6.24,9.57,10.37,13.7,11.7,11.7,27.25,18.14,43.79,18.14s32.1-6.44,43.79-18.14c11.7-11.7,18.14-27.25,18.14-43.79s-6.44-32.1-18.14-43.79M66.17,12.58c33.2,0,53.58,12.06,53.58,20.7s-20.38,20.7-53.58,20.7S12.58,41.93,12.58,33.29s20.38-20.7,53.58-20.7M12.58,53.31c2.53,1.73,5.42,3.34,8.66,4.8,12.1,5.46,28.06,8.46,44.92,8.46s32.82-3.01,44.92-8.46c3.24-1.46,6.13-3.07,8.66-4.8v5.28c-.42.66-.92,1.32-1.5,1.97-.96,1.08-2.14,2.14-3.51,3.18-2.45,1.84-5.52,3.58-9.14,5.14-2.17.93-4.54,1.8-7.09,2.59-3.04.94-6.33,1.75-9.85,2.43-6.73,1.28-14.3,2.03-22.49,2.03s-15.75-.75-22.49-2.03c-3.52-.67-6.81-1.49-9.85-2.43-2.55-.79-4.92-1.65-7.09-2.59-3.62-1.56-6.7-3.3-9.14-5.14-1.37-1.03-2.55-2.09-3.51-3.18-.58-.65-1.08-1.31-1.5-1.97v-5.28Zm0,18.31c1.07.78,2.22,1.53,3.44,2.26,1.53.91,3.17,1.78,4.92,2.6.32.15.64.3.96.45,1.55.7,3.16,1.35,4.83,1.97,6.36,2.34,13.56,4.08,21.25,5.14,5.83.8,11.94,1.22,18.18,1.22s12.35-.42,18.18-1.22c7.69-1.06,14.89-2.79,21.25-5.14,1.67-.61,3.28-1.27,4.83-1.97.33-.15.64-.3.96-.45,1.75-.82,3.39-1.69,4.92-2.6,1.22-.73,2.37-1.48,3.44-2.26v5.16c-11.74,2.41-22.54,8.19-31.21,16.86-.22.22-.43.44-.65.67-6.54,1.2-13.84,1.89-21.72,1.89s-15.75-.75-22.49-2.03c-3.52-.67-6.81-1.49-9.85-2.43-2.55-.79-4.92-1.65-7.09-2.59-3.62-1.56-6.7-3.3-9.14-5.14-1.37-1.03-2.55-2.1-3.51-3.18-.58-.65-1.08-1.31-1.5-1.97v-7.26Zm0,20.3c1.07.78,2.22,1.53,3.44,2.26,1.53.91,3.17,1.78,4.92,2.6.32.15.64.3.96.44,1.55.7,3.16,1.35,4.83,1.97,6.36,2.34,13.56,4.08,21.25,5.14,5.83.8,11.94,1.22,18.18,1.22,4.58,0,9.08-.23,13.46-.66-2.24,3.6-4.08,7.41-5.52,11.38-2.57.16-5.22.24-7.93.24-8.19,0-15.75-.75-22.49-2.03-3.52-.67-6.81-1.49-9.85-2.43-2.55-.79-4.92-1.65-7.09-2.59-3.62-1.56-6.7-3.3-9.14-5.14-1.37-1.03-2.55-2.09-3.51-3.18-.58-.65-1.08-1.31-1.5-1.97v-7.26Zm0,20.3c1.07.78,2.22,1.53,3.44,2.26,1.53.91,3.17,1.78,4.92,2.6.32.15.64.3.96.44,1.55.7,3.16,1.35,4.83,1.97,11.17,4.11,24.95,6.35,39.43,6.35,1.79,0,3.57-.04,5.34-.11-.68,3.59-1.05,7.27-1.09,11-1.4.04-2.81.08-4.24.08-22.05,0-39.57-5.41-48.57-12.18-1.37-1.03-2.55-2.09-3.51-3.18-.58-.65-1.08-1.31-1.5-1.97v-7.26Zm53.58,43.26c-33.2,0-53.58-12.06-53.58-20.7v-2.26c2.66,1.92,5.77,3.7,9.33,5.3,11.9,5.36,27.62,8.32,44.26,8.32,1.62,0,3.23-.04,4.83-.09.44,3.15,1.11,6.24,2.01,9.25-2.21.12-4.49.18-6.83.18m66.17,33.31c-28.31,0-51.34-23.03-51.34-51.34s23.03-51.34,51.34-51.34,51.34,23.03,51.34,51.34-23.03,51.34-51.34,51.34"/><path class="cls-1" d="m163.39,106.38c-8.3-8.3-19.32-12.86-31.06-12.86s-22.76,4.57-31.06,12.86c-8.3,8.3-12.86,19.32-12.86,31.06s4.57,22.76,12.86,31.06c8.3,8.29,19.32,12.86,31.06,12.86s22.76-4.57,31.06-12.86c8.3-8.3,12.86-19.32,12.86-31.06s-4.57-22.76-12.86-31.06m-31.06,69.01c-20.93,0-37.96-17.03-37.96-37.96s17.03-37.96,37.96-37.96,37.96,17.03,37.96,37.96-17.03,37.96-37.96,37.96"/><path class="cls-1" d="m129.23,145.03h7.2c10.08,0,16.2-6.31,16.2-16.45,0-9.46-6.24-16.32-16.01-16.32h-18.64v50.35h11.25v-17.58Zm-.19-22.64h5.04c4.08,0,7.3,1.5,7.3,6.26s-3.22,6.26-7.23,6.26h-5.1v-12.52Z"/></g></g></g></svg>