<?xml version="1.0" encoding="UTF-8"?><svg id="_图层_2" xmlns="http://www.w3.org/2000/svg" viewBox="0 0 202.67 211.13"><defs><style>.cls-1{fill:#007c2f;}</style></defs><g id="user-mypage"><g id="puechase"><g id="charge"><path class="cls-1" d="m54.67,65.45h6.45c9.02,0,14.5-5.65,14.5-14.72,0-8.47-5.59-14.61-14.33-14.61h-16.69v45.07h10.07v-15.74Zm-.17-20.27h4.51c3.65,0,6.53,1.34,6.53,5.6s-2.88,5.61-6.48,5.61h-4.57v-11.21Z"/><path class="cls-1" d="m140.05,101.39h6.45c9.02,0,14.5-5.65,14.5-14.72,0-8.47-5.59-14.61-14.34-14.61h-16.69v45.07h10.07v-15.74Zm-.17-20.27h4.51c3.65,0,6.53,1.34,6.53,5.6s-2.88,5.61-6.48,5.61h-4.57v-11.21Z"/><path class="cls-1" d="m37.22,94.31c2.1-1.11,4.26-2.11,6.47-2.98-12.37-5.69-20.98-18.2-20.98-32.68,0-19.82,16.12-35.94,35.94-35.94,17.53,0,32.17,12.62,35.32,29.25,1.13-1.32,2.32-2.61,3.56-3.85.36-.36.72-.71,1.08-1.05-1.92-6.66-5.51-12.76-10.55-17.8-7.86-7.86-18.3-12.18-29.41-12.18s-21.55,4.33-29.41,12.18c-7.86,7.86-12.18,18.3-12.18,29.41s4.33,21.55,12.18,29.41c2.43,2.43,5.11,4.52,7.98,6.25"/><path class="cls-1" d="m22.56,104.89c2.53-2.41,5.21-4.6,8.04-6.55-12.44-8.82-20.57-23.32-20.57-39.69,0-26.81,21.81-48.62,48.62-48.62,21.01,0,38.95,13.4,45.73,32.09,2.75-2.08,5.63-3.94,8.64-5.55-2.91-7.17-7.26-13.76-12.89-19.39C89.04,6.1,74.32,0,58.65,0S28.26,6.1,17.18,17.18C6.1,28.26,0,42.98,0,58.65s6.1,30.39,17.18,41.47c1.71,1.71,3.51,3.3,5.38,4.77"/><path class="cls-1" d="m173.43,65.19c-7.86-7.86-18.3-12.18-29.41-12.18s-21.55,4.33-29.41,12.18c-7.86,7.86-12.18,18.3-12.18,29.41,0,.64.02,1.27.04,1.91,2.12,1.31,4.17,2.75,6.14,4.31-.35-2.02-.54-4.1-.54-6.21,0-19.82,16.12-35.94,35.94-35.94s35.94,16.12,35.94,35.94-16.12,35.94-35.94,35.94c-5.51,0-10.73-1.25-15.4-3.47.97,2.31,1.8,4.67,2.49,7.08,4.11,1.34,8.46,2.03,12.9,2.03,11.11,0,21.55-4.33,29.41-12.18,7.86-7.86,12.18-18.3,12.18-29.41s-4.33-21.55-12.18-29.41"/><path class="cls-1" d="m185.5,53.12c-11.08-11.08-25.81-17.18-41.47-17.18s-30.39,6.1-41.47,17.18c-9.78,9.78-15.67,22.4-16.92,36,3.37.93,6.65,2.14,9.82,3.6.99-25.94,22.4-46.74,48.58-46.74s48.62,21.81,48.62,48.62-21.81,48.62-48.62,48.62c-3.84,0-7.58-.45-11.17-1.3.55,3.42.83,6.9.84,10.42,3.37.6,6.83.9,10.33.9,15.67,0,30.39-6.1,41.47-17.18,11.08-11.08,17.18-25.81,17.18-41.47s-6.1-30.39-17.18-41.47"/><path class="cls-1" d="m67.94,194.07c-11.11,0-21.55-4.33-29.41-12.18-7.86-7.86-12.18-18.3-12.18-29.41s4.33-21.55,12.18-29.41c7.86-7.86,18.3-12.18,29.41-12.18s21.55,4.33,29.41,12.18c7.86,7.86,12.18,18.3,12.18,29.41s-4.33,21.55-12.18,29.41c-7.86,7.85-18.3,12.18-29.41,12.18m0-77.54c-19.82,0-35.94,16.12-35.94,35.94s16.12,35.95,35.94,35.95,35.94-16.12,35.94-35.95-16.12-35.94-35.94-35.94"/><path class="cls-1" d="m63.96,159.28h6.45c9.02,0,14.5-5.65,14.5-14.72,0-8.47-5.59-14.61-14.33-14.61h-16.69v45.07h10.07v-15.74Zm-.17-20.27h4.51c3.65,0,6.53,1.34,6.53,5.6s-2.88,5.61-6.48,5.61h-4.57v-11.21Z"/><path class="cls-1" d="m67.94,211.13c-15.67,0-30.39-6.1-41.47-17.18-11.08-11.08-17.18-25.81-17.18-41.47s6.1-30.39,17.18-41.47c11.08-11.08,25.81-17.18,41.47-17.18s30.39,6.1,41.47,17.18c11.08,11.08,17.18,25.81,17.18,41.47s-6.1,30.39-17.18,41.47c-11.08,11.08-25.81,17.18-41.47,17.18m0-107.27c-26.81,0-48.62,21.81-48.62,48.62s21.81,48.62,48.62,48.62,48.62-21.81,48.62-48.62-21.81-48.62-48.62-48.62"/></g></g></g></svg>