<?xml version="1.0" encoding="UTF-8"?><svg id="_图层_2" xmlns="http://www.w3.org/2000/svg" viewBox="0 0 32.87 18.51"><defs><style>.cls-1{fill:#007c2f;}</style></defs><g id="user-mypage"><g id="puechase"><g id="_マイページ"><path class="cls-1" d="m31.8,6.86c-2.83-2.56-8.59-6.86-15.36-6.86S3.89,4.31,1.06,6.87c-.67.61-1.06,1.48-1.06,2.39s.39,1.78,1.06,2.39c2.83,2.56,8.59,6.87,15.38,6.87s12.53-4.3,15.36-6.86c.68-.61,1.07-1.49,1.07-2.4s-.39-1.78-1.07-2.4Zm-1.66,2.96c-2.56,2.33-7.76,6.22-13.71,6.22s-11.15-3.9-13.72-6.23c-.22-.2-.25-.43-.25-.56s.03-.36.25-.56c2.57-2.33,7.76-6.23,13.72-6.23s11.14,3.9,13.71,6.22c.22.2.25.44.25.57s-.03.37-.25.57Z"/><path class="cls-1" d="m16.43,4.32c-2.72,0-4.94,2.21-4.94,4.94s2.22,4.93,4.94,4.93,4.94-2.21,4.94-4.94-2.21-4.93-4.94-4.93Zm0,7.41c-1.36,0-2.47-1.11-2.47-2.47s1.11-2.47,2.47-2.47,2.47,1.11,2.47,2.47-1.11,2.47-2.47,2.47Z"/></g></g></g></svg>