<?xml version="1.0" encoding="UTF-8"?><svg id="_图层_2" xmlns="http://www.w3.org/2000/svg" viewBox="0 0 43.05 45.01"><defs><style>.cls-1{fill:#007c2f;}</style></defs><g id="_管理側講座詳細"><path class="cls-1" d="m43.05,5.92c-.04-.76-.46-1.24-1.21-1.38-.53-.1-1.07-.16-1.61-.17-4.75-.01-9.5,0-14.26,0-1.84,0-1.86,0-1.85-1.82,0-.89-.13-1.69-.98-2.14-1.02-.53-2.11-.55-3.12-.04-.99.5-1.15,1.45-1.01,2.47.03.21-.01.42.02.62.11.71-.18.92-.89.92-3.62,0-7.25.05-10.87.07-1.83.01-3.66-.02-5.49.01-.96.01-1.73.32-1.77,1.48-.03,1.14.61,1.67,1.64,1.82.45.06.92.08,1.37.01,1.01-.15,1.33.17,1.31,1.25-.07,5.25-.03,10.5-.03,15.76s0,10.42,0,15.63c0,3,1.52,4.57,4.51,4.58,8.5.02,17.01.02,25.51,0,3,0,4.5-1.54,4.51-4.57.01-3.54,0-7.09,0-10.63,0-6.92.03-13.84-.03-20.76,0-1.07.29-1.4,1.31-1.25.66.09,1.34.03,1.96-.26.67-.3,1.01-.87.97-1.61Zm-11.09,35.49c-7.05.03-14.1.06-21.14.08-2.33,0-3.04-.72-3.04-3.07,0-4.88,0-9.76,0-14.64s.02-9.93-.02-14.89c0-.84.15-1.13,1.07-1.13,8.51.04,17.02.04,25.53,0,.85,0,1.01.27,1.01,1.05-.01,9.72.02,19.44.02,29.16,0,2.66-.79,3.43-3.42,3.44h0Z"/><path class="cls-1" d="m18.38,24.86c0,3.45.01,6.89,0,10.34,0,1.49-1.17,2.32-2.31,1.7-.75-.41-.84-1.11-.83-1.87.01-3.87,0-7.73,0-11.6,0-2.87,0-5.74,0-8.61,0-1.56.52-2.3,1.6-2.28,1.06.01,1.55.74,1.55,2.34,0,3.33,0,6.66,0,9.99Zm10.07-.19c0,3.71,0,7.42,0,11.13,0,1.43-.68,2.3-1.75,2.27-1.03-.03-1.68-.86-1.68-2.21,0-7.46,0-14.92,0-22.38,0-1.41.59-2.15,1.68-2.16,1.12-.01,1.74.77,1.74,2.23,0,3.71,0,7.42,0,11.13h0Z"/></g></svg>